<?xml version="1.0" standalone="no"?>
<!DOCTYPE svg PUBLIC "-//W3C//DTD SVG 20010904//EN"
 "http://www.w3.org/TR/2001/REC-SVG-20010904/DTD/svg10.dtd">
<svg version="1.0" xmlns="http://www.w3.org/2000/svg"
 width="500.000000pt" height="500.000000pt" viewBox="0 0 500.000000 500.000000"
 preserveAspectRatio="xMidYMid meet">
<metadata>
Created by potrace 1.16, written by Peter Selinger 2001-2019
</metadata>
<g transform="translate(0.000000,500.000000) scale(0.100000,-0.100000)"
fill="#000000" stroke="none">
<path d="M2188 4985 c-446 -55 -854 -224 -1228 -511 -52 -40 -105 -83 -118
-97 l-23 -24 50 -67 c59 -78 90 -165 98 -278 3 -43 10 -78 14 -78 5 0 9 4 9 9
0 15 86 105 118 124 l31 17 -2 -87 c-1 -51 2 -90 8 -92 6 -2 25 23 44 55 41
71 136 165 194 193 65 31 154 41 370 41 l198 0 45 94 c24 51 47 108 50 127 4
19 16 52 28 74 l21 40 3 -37 c2 -21 6 -38 8 -38 3 0 29 20 57 45 74 65 121 77
287 77 162 0 188 -4 257 -43 l51 -28 11 50 c6 27 11 60 11 71 0 38 13 10 25
-55 10 -52 29 -92 100 -208 49 -79 95 -150 104 -156 11 -10 68 -13 208 -13
l193 0 73 -36 c46 -24 97 -62 143 -105 l71 -69 24 26 c13 15 42 35 65 45 51
23 100 12 152 -36 l36 -33 17 84 c21 104 63 193 124 260 l46 52 -83 67 c-372
300 -810 485 -1274 540 -156 18 -465 18 -616 0z"/>
<path d="M2375 4500 c-111 -14 -211 -65 -280 -142 -34 -37 -105 -168 -105
-194 0 -8 -78 -13 -264 -16 l-264 -6 -61 -32 c-81 -43 -144 -108 -183 -188
l-33 -67 -3 -295 c-2 -179 1 -305 7 -320 7 -18 10 -20 10 -7 1 19 16 23 26 7
9 -14 52 -12 62 3 4 6 10 138 13 292 7 314 11 336 84 408 72 72 90 77 341 84
l225 6 0 -39 c0 -21 -5 -56 -10 -76 l-11 -37 -204 -3 -205 -3 -30 -31 c-42
-42 -51 -110 -44 -349 7 -279 9 -290 47 -314 18 -11 50 -33 72 -48 22 -16 51
-29 64 -30 13 -1 54 16 90 37 103 61 119 62 181 4 29 -27 59 -62 67 -79 l16
-30 -22 19 -21 19 0 -45 c0 -24 -6 -52 -12 -61 -11 -15 -13 -11 -14 27 -1 58
-64 157 -64 101 0 -25 -29 -77 -62 -111 -16 -17 -31 -39 -32 -49 -1 -10 -17
-23 -36 -29 -27 -9 -36 -18 -41 -43 -6 -31 -88 -123 -109 -123 -6 0 -10 -7
-10 -16 0 -18 -34 -50 -68 -64 -12 -5 -27 -21 -32 -36 -9 -22 -13 -24 -25 -14
-22 18 -85 4 -85 -19 0 -24 -26 -35 -34 -15 -3 8 -23 22 -43 30 -85 35 -103
47 -103 65 0 11 -6 19 -14 19 -8 0 -16 6 -18 12 -6 18 -107 -53 -166 -116 -60
-64 -126 -161 -160 -234 -14 -31 -37 -75 -51 -96 -23 -35 -26 -49 -25 -125 1
-66 6 -96 22 -127 22 -43 97 -118 128 -128 18 -6 19 -22 15 -492 -2 -315 0
-489 7 -496 6 -6 50 7 131 41 66 28 125 51 130 51 4 0 14 -26 20 -57 6 -32 22
-80 35 -108 49 -103 104 -142 456 -328 162 -85 398 -209 523 -276 125 -67 233
-121 238 -121 27 0 1062 558 1126 606 66 50 133 183 133 265 0 16 4 29 8 29 5
0 49 -18 99 -39 49 -22 106 -44 125 -49 l35 -10 7 121 c3 66 6 298 6 516 l0
396 -83 117 -84 117 -6 138 c-4 76 -16 185 -27 242 -31 156 -36 267 -16 315 9
22 21 85 27 140 11 99 12 101 56 150 24 27 51 63 59 78 22 42 28 145 15 223
-8 44 -9 71 -2 78 5 5 32 11 60 12 73 3 114 31 127 85 8 36 18 49 46 65 19 11
42 25 49 32 8 6 93 51 189 98 96 48 177 89 179 90 3 4 -61 96 -107 154 l-19
23 -114 -62 c-63 -35 -131 -74 -152 -88 -20 -14 -71 -39 -112 -57 l-75 -33
-36 69 c-37 69 -83 119 -110 119 -24 0 -78 -26 -93 -44 -8 -9 -22 -48 -31 -87
l-16 -71 -29 74 c-35 90 -109 167 -199 209 -59 28 -68 29 -279 35 l-217 7 -32
56 c-70 125 -123 179 -248 256 -64 39 -67 40 -165 42 -55 0 -127 -2 -160 -7z
m200 -100 c17 -11 38 -17 51 -14 36 9 136 -51 169 -102 l16 -24 -38 20 c-44
23 -104 26 -161 6 -22 -8 -75 -20 -118 -26 -115 -17 -223 -55 -263 -93 -32
-31 -33 -31 -26 -7 12 41 46 103 78 144 34 43 111 96 139 96 10 0 18 5 18 10
0 19 103 11 135 -10z m847 -403 c85 -42 146 -124 155 -212 l5 -40 -66 -32
c-37 -18 -71 -33 -76 -33 -6 0 -10 25 -10 55 0 64 -14 98 -49 122 -22 15 -56
18 -220 21 l-193 4 6 30 c3 17 6 41 6 54 0 13 9 33 21 45 20 20 29 21 192 17
165 -3 174 -4 229 -31z m244 -405 c57 -42 101 -96 113 -139 18 -62 13 -144 -9
-180 -27 -45 -32 -41 -8 7 22 43 18 90 -6 90 -8 0 -32 -15 -55 -32 -40 -33
-65 -50 -153 -108 -38 -25 -50 -40 -58 -73 -18 -70 -21 -75 -31 -49 -5 14 -17
22 -31 22 -13 0 -29 4 -37 9 -12 7 -10 14 8 36 11 15 21 32 21 38 0 6 8 19 17
29 16 18 14 22 -45 79 -34 34 -62 65 -62 70 0 24 55 3 148 -59 29 -19 56 -32
59 -28 4 3 -8 25 -25 49 -66 89 -85 118 -79 124 13 12 70 -21 125 -73 31 -30
60 -54 64 -54 23 0 -5 57 -61 125 -39 48 -51 75 -32 75 15 0 106 -76 139 -116
l32 -39 0 37 c0 28 -11 50 -50 99 -71 91 -63 118 16 61z m-1231 -247 c142 -42
148 -46 71 -39 -38 3 -76 9 -84 12 -11 4 -14 1 -9 -11 9 -23 -39 -23 -135 -1
-47 11 -97 15 -145 12 -40 -3 -73 -4 -73 -3 0 1 26 18 58 38 31 19 68 47 81
60 l23 25 62 -33 c33 -18 102 -45 151 -60z m-358 -135 c54 0 62 -3 89 -32 17
-18 41 -50 53 -71 l23 -37 -31 -35 c-17 -20 -31 -44 -31 -54 0 -10 -11 -26
-25 -35 -15 -10 -25 -26 -25 -40 0 -12 -8 -30 -17 -39 -17 -15 -18 -11 -18 76
0 79 -4 100 -27 150 -15 32 -42 77 -60 99 -25 33 -28 38 -11 29 12 -6 48 -11
80 -11z m406 -34 l38 -24 -32 -11 c-18 -6 -48 -11 -68 -11 -32 -1 -67 -11
-121 -34 -14 -6 -30 17 -68 97 -2 4 45 7 105 7 96 -1 112 -3 146 -24z m-365
-451 c7 -14 12 -28 12 -31 0 -9 -148 -74 -169 -74 -12 0 -21 -6 -21 -13 0 -16
-77 -52 -139 -66 -26 -6 -53 -20 -65 -35 -15 -18 -32 -25 -61 -26 -73 -3 -90
-1 -78 11 18 18 477 259 494 259 9 0 21 -11 27 -25z m464 -49 c92 -25 177 -51
188 -58 21 -13 26 -33 11 -42 -8 -5 -176 16 -229 29 -37 9 -21 -17 19 -30 30
-11 34 -16 34 -48 0 -20 6 -42 13 -48 18 -19 15 -49 -5 -49 -15 0 -15 -1 0
-18 10 -10 17 -28 17 -40 0 -20 -2 -20 -27 -6 -16 7 -54 14 -85 14 -53 0 -59
2 -73 29 -11 22 -65 286 -65 319 0 2 8 1 18 -2 9 -3 92 -26 184 -50z m-952
-306 c0 -19 -39 -49 -72 -54 -18 -3 -67 -10 -108 -17 -41 -6 -87 -17 -102 -24
-28 -13 -28 -13 -28 21 0 19 0 37 0 42 0 11 47 20 160 30 149 13 150 13 150 2z
m-724 -59 c-5 -33 -2 -45 18 -68 24 -27 27 -28 126 -28 l102 0 13 -38 13 -38
-25 16 c-33 22 -39 13 -19 -30 10 -20 16 -50 14 -68 -3 -30 -7 -32 -58 -44
-68 -16 -119 -9 -165 23 -20 13 -38 24 -41 24 -7 0 4 -37 21 -72 17 -35 14
-35 -30 3 -24 22 -40 48 -51 85 -21 74 -4 157 23 110 19 -32 73 -43 142 -30
40 8 40 24 1 24 -86 0 -122 47 -100 129 14 52 25 53 16 2z m1764 -886 l0 -105
45 0 45 0 0 39 c0 41 -11 51 -56 51 -19 0 -24 5 -24 25 0 22 4 25 38 25 21 0
48 -7 60 -16 19 -13 22 -24 22 -79 0 -85 -12 -97 -93 -93 -79 4 -87 17 -87
156 l0 102 25 0 25 0 0 -105z m-1472 63 c-3 -21 -9 -23 -75 -26 -65 -3 -73 -5
-73 -22 0 -17 7 -20 49 -20 27 0 61 -4 75 -10 41 -15 51 -86 19 -122 -13 -15
-33 -18 -105 -18 -87 0 -88 0 -88 25 0 25 1 25 80 25 65 0 82 3 87 16 9 24
-15 34 -79 34 -47 0 -59 4 -72 22 -9 12 -16 34 -16 48 0 14 7 36 16 48 14 20
24 22 100 22 83 0 85 -1 82 -22z m1190 0 c-3 -21 -9 -23 -75 -26 -65 -3 -73
-5 -73 -22 0 -18 7 -20 60 -20 51 0 65 -4 85 -25 27 -26 31 -54 14 -88 -18
-34 -28 -37 -122 -37 -86 0 -88 1 -85 23 3 20 9 22 86 25 79 3 83 4 80 25 -3
19 -10 22 -53 25 -79 4 -92 9 -104 42 -11 33 0 78 22 92 7 4 47 8 90 8 76 0
78 -1 75 -22z m-991 -54 c7 -10 13 -42 13 -73 0 -75 -16 -91 -91 -91 -71 0
-89 19 -89 93 0 38 5 53 26 74 22 22 32 25 76 21 34 -4 56 -12 65 -24z m394 7
c20 -16 24 -28 24 -79 0 -79 -12 -92 -86 -92 -68 0 -89 15 -89 64 0 43 20 59
73 60 36 1 42 -2 45 -21 3 -19 -2 -22 -34 -25 -57 -5 -56 -28 1 -28 l46 0 -3
43 -3 42 -47 3 c-38 2 -48 7 -48 21 0 26 9 31 56 31 26 0 50 -7 65 -19z m257
3 c20 -13 22 -22 22 -94 0 -73 -2 -80 -20 -80 -18 0 -20 7 -20 65 0 36 -2 65
-4 65 -2 0 -11 3 -20 6 -14 5 -16 -4 -16 -65 0 -69 -1 -71 -25 -71 -23 0 -24
3 -27 68 -3 61 -5 67 -25 70 -22 3 -23 0 -23 -67 0 -69 -1 -71 -25 -71 -25 0
-25 1 -25 83 0 49 5 88 11 94 17 17 168 14 197 -3z m527 -9 c20 -19 25 -34 25
-72 0 -73 -19 -93 -87 -93 -65 0 -93 18 -93 60 0 44 20 61 75 63 44 2 50 0 53
-20 3 -19 -2 -22 -40 -25 -55 -4 -52 -23 4 -23 46 0 56 13 44 61 -6 21 -12 24
-51 24 -41 0 -45 2 -45 25 0 23 4 25 45 25 35 0 52 -6 70 -25z m606 6 c20 -16
24 -28 24 -79 0 -79 -12 -92 -86 -92 -68 0 -89 15 -89 64 0 43 20 59 73 60 36
1 42 -2 45 -21 3 -19 -2 -22 -34 -25 -57 -5 -56 -28 1 -28 l46 0 -3 43 -3 42
-47 3 c-38 2 -48 7 -48 21 0 26 9 31 56 31 26 0 50 -7 65 -19z m259 -30 l5
-45 29 40 c17 21 35 42 40 46 19 13 35 -13 38 -60 l3 -47 30 58 c27 52 54 72
69 49 7 -11 -40 -103 -75 -145 -44 -53 -73 -49 -77 11 l-3 43 -35 -45 c-57
-75 -74 -61 -74 58 0 76 4 89 30 84 10 -2 17 -18 20 -47z m365 24 c20 -19 25
-34 25 -72 0 -73 -19 -93 -87 -93 -65 0 -93 18 -93 60 0 44 20 61 75 63 44 2
50 0 53 -20 3 -19 -2 -22 -40 -25 -55 -4 -52 -23 4 -23 46 0 56 13 44 61 -6
21 -12 24 -51 24 -41 0 -45 2 -45 25 0 23 4 25 45 25 35 0 52 -6 70 -25z
m-2361 -377 c14 -122 19 -132 99 -181 125 -78 883 -477 904 -477 10 0 654 339
860 452 108 60 123 84 123 198 l0 69 73 -33 72 -34 -1 -65 c-2 -76 -38 -154
-89 -192 -43 -33 -233 -138 -662 -366 -344 -182 -380 -199 -403 -189 -45 21
-934 493 -971 516 -45 28 -96 78 -113 113 -14 27 -36 128 -36 166 0 15 16 29
63 52 34 18 65 32 68 32 4 1 9 -27 13 -61z"/>
<path d="M4180 4303 c0 -60 49 -165 116 -252 5 -5 114 60 114 68 0 11 -189
210 -211 222 -17 9 -19 6 -19 -38z"/>
<path d="M693 4237 c-387 -408 -620 -911 -684 -1476 -15 -136 -6 -513 15 -647
112 -695 499 -1303 1076 -1689 432 -289 880 -425 1400 -425 430 0 798 90 1170
286 657 346 1129 972 1280 1694 68 330 68 710 0 1040 -56 269 -177 572 -316
793 -40 65 -38 64 -126 17 l-55 -30 -6 -117 c-4 -73 -13 -142 -25 -181 -11
-34 -16 -64 -12 -67 29 -18 123 133 136 221 8 58 20 46 33 -36 29 -177 -6
-324 -105 -447 -19 -22 -39 -54 -45 -70 -21 -54 -47 -163 -39 -168 24 -15 125
144 136 216 4 22 10 39 15 39 15 0 24 -73 24 -190 0 -108 -2 -120 -33 -191
-57 -132 -152 -216 -299 -263 -47 -16 -61 -28 -148 -132 -135 -161 -140 -171
-126 -244 7 -32 23 -91 36 -131 l25 -73 0 -577 0 -577 -112 48 c-167 72 -163
71 -182 12 -22 -65 -78 -157 -118 -194 -58 -52 -63 -55 -518 -293 -113 -59
-248 -131 -300 -160 -52 -28 -151 -82 -221 -118 l-125 -65 -140 72 c-76 40
-249 131 -384 203 -135 72 -288 153 -340 180 -305 159 -357 204 -416 360 -14
38 -27 69 -29 71 -1 1 -63 -24 -138 -57 l-135 -59 -8 76 c-3 42 -4 274 0 516
l7 441 -29 16 c-43 24 -107 110 -127 170 -29 88 -18 165 44 286 28 57 51 109
51 118 0 8 -16 33 -36 55 -28 31 -51 44 -103 60 -70 21 -154 78 -209 141 -95
109 -138 310 -96 450 l17 54 21 -65 c26 -78 46 -117 82 -159 28 -34 59 -42 50
-13 -15 46 -46 177 -46 192 0 9 -11 31 -24 49 -33 45 -73 148 -92 234 -13 64
-13 79 2 151 9 45 20 85 24 90 5 5 14 -11 20 -35 19 -71 57 -142 94 -178 20
-19 39 -32 42 -28 3 3 -1 28 -10 54 -9 26 -21 83 -27 125 -18 140 14 234 154
453 83 130 109 186 105 222 -3 24 -7 21 -75 -50z"/>
<path d="M826 4162 c-4 -7 -25 -63 -48 -125 -45 -127 -47 -169 -8 -252 l23
-50 7 45 c5 25 18 74 30 110 29 84 37 203 18 250 -9 22 -17 30 -22 22z"/>
<path d="M1035 3900 c-16 -35 -17 -57 -11 -188 4 -81 10 -162 14 -181 l7 -34
33 63 c24 47 32 76 32 114 0 54 -40 266 -51 266 -3 0 -14 -18 -24 -40z"/>
<path d="M4314 3693 c-4 -10 -20 -52 -36 -93 -38 -98 -47 -185 -23 -245 9 -26
22 -44 28 -42 6 2 16 30 23 63 7 32 20 79 29 104 31 86 29 217 -3 228 -7 2
-15 -5 -18 -15z"/>
</g>
</svg>
